# xmcd CD database file
#
# Track frame offsets:
#       182
#       20742
#       34562
#       58632
#       81237
#       98407
#       119322
#       147995
#       175995
#       207912
#       225240
#       236005
#       253675
#
# Disc length: 3487 seconds
#
# Revision: 1
# Processed by: cddbd v1.5.2PL0 Copyright (c) Steve Scherf et al.
# Submitted via: jack 3.1.1
#
DISCID=a60d9d0d
DTITLE=Big Broter And The Holding Company and Friends/Can't Go Home Again
DYEAR=1971
DGENRE=blues
TTITLE0=Don't You Call Me Cryin'
TTITLE1=I Know
TTITLE2=As The Years Go Passing By
TTITLE3=Three Times Last Week
TTITLE4=Heartache
TTITLE5=Tired Of It All
TTITLE6=I Can't Go Home Again
TTITLE7=Machine Song
TTITLE8=Havanna Ghila
TTITLE9=Try It
TTITLE10=Drivin' Stupid
TTITLE11=Ghost Riders In The Sky
TTITLE12=Ghost Riders In The Sky (reprise)
EXTD=
EXTT0=
EXTT1=
EXTT2=
EXTT3=
EXTT4=
EXTT5=
EXTT6=
EXTT7=
EXTT8=
EXTT9=
EXTT10=
EXTT11=
EXTT12=
PLAYORDER=
